<svg width="32" height="32" viewBox="0 0 32 32" fill="none" xmlns="http://www.w3.org/2000/svg">
<mask id="path-1-inside-1_396_24930" fill="white">
<path d="M0 9.6C0 6.23969 0 4.55953 0.653961 3.27606C1.2292 2.14708 2.14708 1.2292 3.27606 0.653961C4.55953 0 6.23969 0 9.6 0H22.4C25.7603 0 27.4405 0 28.7239 0.653961C29.8529 1.2292 30.7708 2.14708 31.346 3.27606C32 4.55953 32 6.23969 32 9.6V22.4C32 25.7603 32 27.4405 31.346 28.7239C30.7708 29.8529 29.8529 30.7708 28.7239 31.346C27.4405 32 25.7603 32 22.4 32H9.6C6.23969 32 4.55953 32 3.27606 31.346C2.14708 30.7708 1.2292 29.8529 0.653961 28.7239C0 27.4405 0 25.7603 0 22.4V9.6Z"/>
</mask>
<path d="M0 9.6C0 6.23969 0 4.55953 0.653961 3.27606C1.2292 2.14708 2.14708 1.2292 3.27606 0.653961C4.55953 0 6.23969 0 9.6 0H22.4C25.7603 0 27.4405 0 28.7239 0.653961C29.8529 1.2292 30.7708 2.14708 31.346 3.27606C32 4.55953 32 6.23969 32 9.6V22.4C32 25.7603 32 27.4405 31.346 28.7239C30.7708 29.8529 29.8529 30.7708 28.7239 31.346C27.4405 32 25.7603 32 22.4 32H9.6C6.23969 32 4.55953 32 3.27606 31.346C2.14708 30.7708 1.2292 29.8529 0.653961 28.7239C0 27.4405 0 25.7603 0 22.4V9.6Z" fill="white"/>
<path d="M3.27606 31.346L3.73005 30.455L3.27606 31.346ZM31.346 28.7239L32.237 29.1779L31.346 28.7239ZM28.7239 31.346L29.1779 32.237L28.7239 31.346ZM28.7239 0.653961L28.27 1.54497L28.7239 0.653961ZM31.346 3.27606L30.455 3.73005L31.346 3.27606ZM9.6 0V1H22.4V0V-1H9.6V0ZM32 9.6H31V22.4H32H33V9.6H32ZM22.4 32V31H9.6V32V33H22.4V32ZM0 22.4H1V9.6H0H-1V22.4H0ZM9.6 32V31C7.90334 31 6.69099 30.9992 5.74064 30.9216C4.80197 30.8449 4.20731 30.6982 3.73005 30.455L3.27606 31.346L2.82207 32.237C3.62827 32.6478 4.51543 32.8281 5.57778 32.9149C6.62846 33.0008 7.93634 33 9.6 33V32ZM0 22.4H-1C-1 24.0637 -1.00078 25.3715 -0.914934 26.4222C-0.828136 27.4846 -0.647827 28.3717 -0.237046 29.1779L0.653961 28.7239L1.54497 28.27C1.30179 27.7927 1.15512 27.198 1.07842 26.2594C1.00078 25.309 1 24.0967 1 22.4H0ZM3.27606 31.346L3.73005 30.455C2.78924 29.9757 2.02433 29.2108 1.54497 28.27L0.653961 28.7239L-0.237046 29.1779C0.434068 30.4951 1.50493 31.5659 2.82207 32.237L3.27606 31.346ZM32 22.4H31C31 24.0967 30.9992 25.309 30.9216 26.2594C30.8449 27.198 30.6982 27.7927 30.455 28.27L31.346 28.7239L32.237 29.1779C32.6478 28.3717 32.8281 27.4846 32.9149 26.4222C33.0008 25.3715 33 24.0637 33 22.4H32ZM22.4 32V33C24.0637 33 25.3715 33.0008 26.4222 32.9149C27.4846 32.8281 28.3717 32.6478 29.1779 32.237L28.7239 31.346L28.27 30.455C27.7927 30.6982 27.198 30.8449 26.2594 30.9216C25.309 30.9992 24.0967 31 22.4 31V32ZM31.346 28.7239L30.455 28.27C29.9757 29.2108 29.2108 29.9757 28.27 30.455L28.7239 31.346L29.1779 32.237C30.4951 31.5659 31.5659 30.4951 32.237 29.1779L31.346 28.7239ZM22.4 0V1C24.0967 1 25.309 1.00078 26.2594 1.07842C27.198 1.15512 27.7927 1.30179 28.27 1.54497L28.7239 0.653961L29.1779 -0.237046C28.3717 -0.647827 27.4846 -0.828136 26.4222 -0.914934C25.3715 -1.00078 24.0637 -1 22.4 -1V0ZM32 9.6H33C33 7.93634 33.0008 6.62846 32.9149 5.57778C32.8281 4.51543 32.6478 3.62827 32.237 2.82207L31.346 3.27606L30.455 3.73005C30.6982 4.20731 30.8449 4.80197 30.9216 5.74064C30.9992 6.69099 31 7.90334 31 9.6H32ZM28.7239 0.653961L28.27 1.54497C29.2108 2.02433 29.9757 2.78924 30.455 3.73005L31.346 3.27606L32.237 2.82207C31.5659 1.50493 30.4951 0.434068 29.1779 -0.237046L28.7239 0.653961ZM9.6 0V-1C7.93634 -1 6.62846 -1.00078 5.57778 -0.914934C4.51543 -0.828136 3.62827 -0.647827 2.82207 -0.237046L3.27606 0.653961L3.73005 1.54497C4.20731 1.30179 4.80197 1.15512 5.74064 1.07842C6.69099 1.00078 7.90334 1 9.6 1V0ZM0 9.6H1C1 7.90334 1.00078 6.69099 1.07842 5.74064C1.15512 4.80197 1.30179 4.20731 1.54497 3.73005L0.653961 3.27606L-0.237046 2.82207C-0.647827 3.62827 -0.828136 4.51543 -0.914934 5.57778C-1.00078 6.62846 -1 7.93634 -1 9.6H0ZM3.27606 0.653961L2.82207 -0.237046C1.50493 0.434068 0.434068 1.50493 -0.237046 2.82207L0.653961 3.27606L1.54497 3.73005C2.02433 2.78924 2.78924 2.02433 3.73005 1.54497L3.27606 0.653961Z" fill="#CCCCCC" mask="url(#path-1-inside-1_396_24930)"/>
<path fill-rule="evenodd" clip-rule="evenodd" d="M16.6 10.2V11.6H18.6666C18.998 11.6 19.2666 11.8686 19.2666 12.2C19.2666 12.5314 18.998 12.8 18.6666 12.8H16.6V15.4H17.3333C17.9909 15.4 18.6195 15.666 19.0812 16.136C19.5426 16.6056 19.8 17.2404 19.8 17.9C19.8 18.5597 19.5426 19.1944 19.0812 19.664C18.6195 20.134 17.9909 20.4 17.3333 20.4H16.6V21.8C16.6 22.1314 16.3313 22.4 16 22.4C15.6686 22.4 15.4 22.1314 15.4 21.8V20.4H12.8C12.4686 20.4 12.2 20.1314 12.2 19.8C12.2 19.4686 12.4686 19.2 12.8 19.2H15.4V16.6H14.6666C14.009 16.6 13.3804 16.334 12.9187 15.864C12.4573 15.3944 12.2 14.7597 12.2 14.1C12.2 13.4404 12.4573 12.8056 12.9187 12.336C13.3804 11.866 14.009 11.6 14.6666 11.6H15.4V10.2C15.4 9.86864 15.6686 9.60001 16 9.60001C16.3313 9.60001 16.6 9.86864 16.6 10.2ZM14.6666 12.8H15.4V15.4H14.6666C14.3341 15.4 14.0131 15.2657 13.7747 15.023C13.5359 14.78 13.4 14.4482 13.4 14.1C13.4 13.7518 13.5359 13.42 13.7747 13.177C14.0131 12.9343 14.3341 12.8 14.6666 12.8ZM16.6 16.6V19.2H17.3333C17.6658 19.2 17.9868 19.0657 18.2252 18.823C18.464 18.58 18.6 18.2482 18.6 17.9C18.6 17.5518 18.464 17.22 18.2252 16.977C17.9868 16.7343 17.6658 16.6 17.3333 16.6H16.6Z" fill="#5B5858"/>
</svg>
